<svg width="47" height="47" viewBox="0 0 47 47" fill="none" xmlns="http://www.w3.org/2000/svg">
<g filter="url(#filter0_d_0_303)">
<path fill-rule="evenodd" clip-rule="evenodd" d="M23.3333 40.1667C33.4586 40.1667 41.6667 31.9586 41.6667 21.8333C41.6667 11.7081 33.4586 3.5 23.3333 3.5C13.2081 3.5 5 11.7081 5 21.8333C5 31.9586 13.2081 40.1667 23.3333 40.1667Z" fill="black"/>
<path fill-rule="evenodd" clip-rule="evenodd" d="M23.3333 40.1667C33.4586 40.1667 41.6667 31.9586 41.6667 21.8333C41.6667 11.7081 33.4586 3.5 23.3333 3.5C13.2081 3.5 5 11.7081 5 21.8333C5 31.9586 13.2081 40.1667 23.3333 40.1667Z" stroke="white" stroke-width="2.5"/>
</g>
<path fill-rule="evenodd" clip-rule="evenodd" d="M23.3332 29.874C27.7741 29.874 31.3741 26.274 31.3741 21.8331C31.3741 17.3922 27.7741 13.7921 23.3332 13.7921C18.8923 13.7921 15.2922 17.3922 15.2922 21.8331C15.2922 26.274 18.8923 29.874 23.3332 29.874Z" fill="white"/>
<defs>
<filter id="filter0_d_0_303" x="0.416667" y="0.583333" width="45.8334" height="45.8333" filterUnits="userSpaceOnUse" color-interpolation-filters="sRGB">
<feFlood flood-opacity="0" result="BackgroundImageFix"/>
<feColorMatrix in="SourceAlpha" type="matrix" values="0 0 0 0 0 0 0 0 0 0 0 0 0 0 0 0 0 0 127 0" result="hardAlpha"/>
<feOffset dy="1.66667"/>
<feGaussianBlur stdDeviation="1.66667"/>
<feColorMatrix type="matrix" values="0 0 0 0 0 0 0 0 0 0 0 0 0 0 0 0 0 0 0.1 0"/>
<feBlend mode="normal" in2="BackgroundImageFix" result="effect1_dropShadow_0_303"/>
<feBlend mode="normal" in="SourceGraphic" in2="effect1_dropShadow_0_303" result="shape"/>
</filter>
</defs>
</svg>
